<?xml version="1.0" encoding="UTF-8" standalone="no"?>
<svg
   xmlns:dc="http://purl.org/dc/elements/1.1/"
   xmlns:cc="http://creativecommons.org/ns#"
   xmlns:rdf="http://www.w3.org/1999/02/22-rdf-syntax-ns#"
   xmlns:svg="http://www.w3.org/2000/svg"
   xmlns="http://www.w3.org/2000/svg"
   xmlns:sodipodi="http://sodipodi.sourceforge.net/DTD/sodipodi-0.dtd"
   xmlns:inkscape="http://www.inkscape.org/namespaces/inkscape"
   width="256"
   height="256"
   viewBox="0 0 256 256"
   version="1.1"
   id="svg8"
   inkscape:version="1.0.2-2 (e86c870879, 2021-01-15)"
   sodipodi:docname="book_box.svg"
   inkscape:export-filename="C:\Users\Eduardo\Documents\Repos\TheNerdShop\resources\icons\tags\export\book_box.png"
   inkscape:export-xdpi="96"
   inkscape:export-ydpi="96">
  <defs
     id="defs2" />
  <sodipodi:namedview
     id="base"
     pagecolor="#ffffff"
     bordercolor="#666666"
     borderopacity="1.0"
     inkscape:pageopacity="0.0"
     inkscape:pageshadow="2"
     inkscape:zoom="2.8"
     inkscape:cx="132.60132"
     inkscape:cy="144.10225"
     inkscape:document-units="px"
     inkscape:current-layer="layer1"
     inkscape:document-rotation="0"
     showgrid="false"
     units="px"
     inkscape:window-width="1920"
     inkscape:window-height="1027"
     inkscape:window-x="1358"
     inkscape:window-y="-8"
     inkscape:window-maximized="1" />
  <metadata
     id="metadata5">
    <rdf:RDF>
      <cc:Work
         rdf:about="">
        <dc:format>image/svg+xml</dc:format>
        <dc:type
           rdf:resource="http://purl.org/dc/dcmitype/StillImage" />
        <dc:title></dc:title>
      </cc:Work>
    </rdf:RDF>
  </metadata>
  <g
     inkscape:label="Layer 1"
     inkscape:groupmode="layer"
     id="layer1">
    <path
       id="path861"
       style="color:#000000;font-style:normal;font-variant:normal;font-weight:normal;font-stretch:normal;font-size:medium;line-height:normal;font-family:sans-serif;font-variant-ligatures:normal;font-variant-position:normal;font-variant-caps:normal;font-variant-numeric:normal;font-variant-alternates:normal;font-variant-east-asian:normal;font-feature-settings:normal;font-variation-settings:normal;text-indent:0;text-align:start;text-decoration:none;text-decoration-line:none;text-decoration-style:solid;text-decoration-color:#000000;letter-spacing:normal;word-spacing:normal;text-transform:none;writing-mode:lr-tb;direction:ltr;text-orientation:mixed;dominant-baseline:auto;baseline-shift:baseline;text-anchor:start;white-space:normal;shape-padding:0;shape-margin:0;inline-size:0;clip-rule:nonzero;display:inline;overflow:visible;visibility:visible;opacity:1;isolation:auto;mix-blend-mode:normal;color-interpolation:sRGB;color-interpolation-filters:linearRGB;solid-color:#000000;solid-opacity:1;vector-effect:none;fill:#000000;fill-opacity:1;fill-rule:nonzero;stroke:none;stroke-width:0.717282;stroke-linecap:round;stroke-linejoin:miter;stroke-miterlimit:4;stroke-dasharray:none;stroke-dashoffset:0;stroke-opacity:1;color-rendering:auto;image-rendering:auto;shape-rendering:auto;text-rendering:auto;enable-background:accumulate;stop-color:#000000;stop-opacity:1"
       d="m 113.02116,14.646259 a 5.4225161,5.4225161 0 0 0 -3.18853,1.066116 L 19.292584,82.811859 c -0.482486,0.165932 -0.686495,0.338192 -0.965246,0.488932 -0.890225,0.48139 -1.649081,1.02919 -2.548315,1.7848 -1.798471,1.51122 -3.942089,3.77981 -5.654198,6.95568 -3.3804213,6.27048 -4.1345285,16.416139 3.395878,26.708929 -0.86936,1.07124 -1.723328,2.30115 -2.48947,3.7223 -3.2876986,6.09851 -4.0934716,15.86415 2.792077,25.86418 -1.329411,1.37287 -2.705186,3.115 -3.8792043,5.29276 -3.4062864,6.31845 -4.1493403,16.57215 3.5667923,26.9457 a 5.4219739,5.4219739 0 0 0 0.322217,0.41889 5.4219702,5.4219702 0 0 0 0.0042,0.005 5.4219739,5.4219739 0 0 0 0.105067,0.12049 5.4219702,5.4219702 0 0 0 0.0042,0.005 5.4219739,5.4219739 0 0 0 0.470717,0.45951 5.4219702,5.4219702 0 0 0 0.0042,0.003 5.4219739,5.4219739 0 0 0 0.123286,0.10367 5.4219702,5.4219702 0 0 0 0.0042,0.003 5.4219739,5.4219739 0 0 0 0.126084,0.0995 5.4219702,5.4219702 0 0 0 0.0042,0.003 5.4219739,5.4219739 0 0 0 0.403472,0.2802 5.4219702,5.4219702 0 0 0 0.0056,0.003 5.4219739,5.4219739 0 0 0 0.281591,0.16532 5.4219702,5.4219702 0 0 0 0.0042,0.002 5.4219739,5.4219739 0 0 0 0.142897,0.0756 5.4219702,5.4219702 0 0 0 0.0042,0.002 5.4219739,5.4219739 0 0 0 0.04904,0.0251 l 114.161301,56.11472 a 5.4219702,5.4219702 0 0 0 0.014,0.007 l 0.0294,0.014 a 5.4219702,5.4219702 0 0 0 0.12047,0.0575 5.4219739,5.4219739 0 0 0 0.0995,0.0448 5.4219702,5.4219702 0 0 0 0.0519,0.0224 5.4219739,5.4219739 0 0 0 0.0308,0.0126 5.4219702,5.4219702 0 0 0 0.0239,0.01 c 0,0 0.005,0.002 0.005,0.002 a 5.4219739,5.4219739 0 0 0 0.67526,0.22555 c 0.77648,0.25212 2.19177,0.6712 4.19302,1.0479 3.02857,0.57009 7.64396,1.16961 14.40027,1.43456 3.85447,0.15116 6.55869,-1.21586 10.29132,-2.97419 3.73265,-1.75832 8.06226,-4.18189 12.84664,-7.07335 9.56875,-5.78291 20.90991,-13.43417 31.83639,-21.09398 21.85294,-15.31959 42.02403,-30.67501 42.02403,-30.67501 a 5.4219702,5.4219702 0 0 0 1.03109,-7.5973 5.4219702,5.4219702 0 0 0 -4.30089,-2.13784 5.4219702,5.4219702 0 0 0 -3.29781,1.10674 c 0,0 -20.04854,15.25795 -41.6808,30.42285 -10.81614,7.58244 -22.03354,15.142 -31.2214,20.6947 -4.59391,2.77635 -8.69197,5.05193 -11.85897,6.5438 -3.16699,1.49186 -5.83339,1.92563 -5.24511,1.94871 -0.54688,-0.0215 -1.05511,-0.0485 -1.56905,-0.0742 a 5.4219702,5.4219702 0 0 0 -0.042,-0.056 c -5.8715,-7.80419 -4.61922,-12.07813 -2.80469,-15.44397 0.90727,-1.68293 2.19567,-3.05216 3.08488,-3.79935 0.18698,-0.15712 0.17069,-0.13453 0.3068,-0.23116 a 5.4219702,5.4219702 0 0 0 1.59148,-0.82095 c 3.34139,-0.1002 5.89847,-1.3651 9.29944,-2.96719 3.73265,-1.75832 8.06226,-4.1805 12.84663,-7.07195 9.56877,-5.78292 20.90993,-13.43559 31.8364,-21.09539 21.85294,-15.31959 42.02403,-30.6736 42.02403,-30.6736 a 5.4219702,5.4219702 0 0 0 1.03109,-7.59871 5.4219702,5.4219702 0 0 0 -4.30088,-2.13784 5.4219702,5.4219702 0 0 0 -3.29783,1.10815 c 0,0 -20.04852,15.25796 -41.68079,30.42284 -10.81614,7.58245 -22.03354,15.1406 -31.22139,20.69331 -4.59392,2.77635 -8.69197,5.05194 -11.85896,6.54379 -3.167,1.49187 -5.8334,1.92565 -5.24513,1.94871 -0.18064,-0.007 -0.34131,-0.0162 -0.51834,-0.0238 a 5.4219702,5.4219702 0 0 0 -0.006,-0.008 c -5.8715,-7.80422 -4.62062,-12.07954 -2.80608,-15.44538 0.90726,-1.68293 2.19567,-3.05216 3.08487,-3.79936 0.18652,-0.15673 0.17082,-0.13318 0.30681,-0.22975 a 5.4219702,5.4219702 0 0 0 2.45165,-1.62369 c 2.46488,-0.43135 4.63882,-1.49506 7.35353,-2.77386 3.73265,-1.75833 8.06226,-4.1819 12.84664,-7.07336 9.56876,-5.78291 20.90992,-13.43417 31.83639,-21.09398 21.85295,-15.31959 42.02404,-30.67361 42.02404,-30.67361 a 5.4219739,5.4219739 0 0 0 1.03108,-7.5987 5.4219739,5.4219739 0 0 0 -4.30088,-2.13783 5.4219739,5.4219739 0 0 0 -3.29782,1.10675 c 0,0 -20.04853,15.25934 -41.6808,30.42423 -10.81614,7.58245 -22.03354,15.1406 -31.22139,20.6933 -4.59391,2.77636 -8.69197,5.05194 -11.85896,6.5438 -3.167,1.49187 -5.8334,1.92564 -5.24513,1.94871 -0.85926,-0.0337 -1.66896,-0.0737 -2.44744,-0.11768 -4.69569,-6.91401 -3.48893,-10.87036 -1.7876,-14.02623 0.90726,-1.68291 2.19566,-3.05216 3.08487,-3.79934 0.18602,-0.15632 0.17153,-0.13483 0.30542,-0.22976 6.8e-4,-4.8e-4 7e-4,-7.2e-4 0.002,-0.002 a 5.4225161,5.4225161 0 0 0 0.31242,-0.11067 5.4225161,5.4225161 0 0 0 0.15409,-0.0631 5.4225161,5.4225161 0 0 0 0.30121,-0.13869 5.4225161,5.4225161 0 0 0 0.1471,-0.0771 5.4219702,5.4219702 0 0 0 0.0168,-0.008 5.4225161,5.4225161 0 0 0 0.12748,-0.0715 5.4225161,5.4225161 0 0 0 0.27179,-0.16811 5.4225161,5.4225161 0 0 0 0.01,-0.007 5.4219702,5.4219702 0 0 0 0.0168,-0.0112 5.4225161,5.4225161 0 0 0 0.12048,-0.0827 5.4219702,5.4219702 0 0 0 0.014,-0.01 l 93.64756,-66.8419 a 5.4225161,5.4225161 0 0 0 -0.93444,-9.362496 L 115.27668,15.119777 a 5.4225161,5.4225161 0 0 0 -2.25552,-0.473518 z M 113.74125,26.313298 230.09643,78.391893 146.67178,137.9347 32.08878,86.825551 Z M 21.927756,94.166491 137.54745,145.73794 c -0.53185,0.75228 -1.04887,1.56509 -1.52984,2.45725 -2.36114,4.37979 -3.44305,10.65044 -1.31547,17.54119 0,0 -0.002,0 -0.002,0 -0.33686,-0.0915 -0.38914,-0.12246 -0.41047,-0.1331 L 25.413295,113.89874 c -0.75859,-0.5222 -1.546639,-0.7946 -2.104211,-0.9008 -0.237715,-0.0453 -0.447699,-0.0737 -0.638833,-0.0897 a 5.4219702,5.4219702 0 0 0 -0.194727,-0.27598 c -5.871506,-7.80422 -4.619218,-12.07953 -2.804688,-15.445379 0.652885,-1.21105 1.500095,-2.24917 2.25692,-3.02043 z m 0.85457,30.488689 106.954874,50.78972 a 5.4219739,5.4219739 0 0 0 0.008,0.005 l 0.0953,0.0449 a 5.4219739,5.4219739 0 0 0 0.26058,0.11628 c 0,0 0.0214,0.008 0.0224,0.008 a 5.4219739,5.4219739 0 0 0 0.65004,0.21715 c 0.77474,0.25221 2.19335,0.67297 4.20003,1.05071 0.78774,0.14828 1.6958,0.29837 2.70801,0.44409 -0.25892,0.41569 -0.51422,0.84387 -0.7579,1.29587 -2.54996,4.73005 -3.60674,11.6664 -0.7411,19.20691 -1.50802,-0.30837 -1.8608,-0.44838 -1.89688,-0.46652 L 24.320559,145.05288 a 5.4219702,5.4219702 0 0 0 -0.938628,-1.98934 c -5.871505,-7.80421 -4.620616,-12.07953 -2.806086,-15.44537 0.638489,-1.18436 1.462452,-2.19724 2.206481,-2.96299 z m -1.088525,31.15692 108.142859,51.44678 a 5.4219739,5.4219739 0 0 0 0.19333,0.0868 5.4219702,5.4219702 0 0 0 0.0715,0.0294 5.4219739,5.4219739 0 0 0 0.70187,0.23536 c 0.78202,0.2535 2.18711,0.66753 4.17059,1.04089 0.40618,0.0764 0.91815,0.15312 1.38274,0.22976 -0.1757,0.29449 -0.35164,0.59036 -0.51975,0.90221 -2.53272,4.69804 -3.59074,11.57191 -0.79714,19.0528 -0.53482,-0.13247 -0.69253,-0.19021 -0.72849,-0.20734 L 21.573319,173.2118 c -5.020357,-7.1644 -3.818723,-11.22001 -2.084601,-14.4367 0.638138,-1.18372 1.461354,-2.19696 2.205083,-2.963 z" />
  </g>
</svg>
