<?xml version="1.0" encoding="UTF-8" standalone="no"?>
<svg
   xmlns:dc="http://purl.org/dc/elements/1.1/"
   xmlns:cc="http://creativecommons.org/ns#"
   xmlns:rdf="http://www.w3.org/1999/02/22-rdf-syntax-ns#"
   xmlns:svg="http://www.w3.org/2000/svg"
   xmlns="http://www.w3.org/2000/svg"
   xmlns:sodipodi="http://sodipodi.sourceforge.net/DTD/sodipodi-0.dtd"
   xmlns:inkscape="http://www.inkscape.org/namespaces/inkscape"
   width="256"
   height="256"
   viewBox="0 0 256 256"
   version="1.1"
   id="svg8"
   inkscape:version="1.0.2-2 (e86c870879, 2021-01-15)"
   sodipodi:docname="book.svg"
   inkscape:export-filename="C:\Users\Eduardo\Documents\Repos\TheNerdShop\resources\icons\tags\export\book.png"
   inkscape:export-xdpi="96"
   inkscape:export-ydpi="96">
  <defs
     id="defs2" />
  <sodipodi:namedview
     id="base"
     pagecolor="#ffffff"
     bordercolor="#666666"
     borderopacity="1.0"
     inkscape:pageopacity="0.0"
     inkscape:pageshadow="2"
     inkscape:zoom="2.0159909"
     inkscape:cx="165.95455"
     inkscape:cy="153.49699"
     inkscape:document-units="px"
     inkscape:current-layer="layer1"
     inkscape:document-rotation="0"
     showgrid="false"
     units="px"
     inkscape:window-width="1366"
     inkscape:window-height="768"
     inkscape:window-x="1496"
     inkscape:window-y="0"
     inkscape:window-maximized="0" />
  <metadata
     id="metadata5">
    <rdf:RDF>
      <cc:Work
         rdf:about="">
        <dc:format>image/svg+xml</dc:format>
        <dc:type
           rdf:resource="http://purl.org/dc/dcmitype/StillImage" />
        <dc:title></dc:title>
      </cc:Work>
    </rdf:RDF>
  </metadata>
  <g
     inkscape:label="Layer 1"
     inkscape:groupmode="layer"
     id="layer1">
    <path
       id="path847"
       style="color:#000000;font-style:normal;font-variant:normal;font-weight:normal;font-stretch:normal;font-size:medium;line-height:normal;font-family:sans-serif;font-variant-ligatures:normal;font-variant-position:normal;font-variant-caps:normal;font-variant-numeric:normal;font-variant-alternates:normal;font-variant-east-asian:normal;font-feature-settings:normal;font-variation-settings:normal;text-indent:0;text-align:start;text-decoration:none;text-decoration-line:none;text-decoration-style:solid;text-decoration-color:#000000;letter-spacing:normal;word-spacing:normal;text-transform:none;writing-mode:lr-tb;direction:ltr;text-orientation:mixed;dominant-baseline:auto;baseline-shift:baseline;text-anchor:start;white-space:normal;shape-padding:0;shape-margin:0;inline-size:0;clip-rule:nonzero;display:inline;overflow:visible;visibility:visible;opacity:1;isolation:auto;mix-blend-mode:normal;color-interpolation:sRGB;color-interpolation-filters:linearRGB;solid-color:#000000;solid-opacity:1;vector-effect:none;fill:#000000;fill-opacity:1;fill-rule:nonzero;stroke:none;stroke-width:0.337539;stroke-linecap:round;stroke-linejoin:round;stroke-miterlimit:4;stroke-dasharray:none;stroke-dashoffset:0;stroke-opacity:1;color-rendering:auto;image-rendering:auto;shape-rendering:auto;text-rendering:auto;enable-background:accumulate;stop-color:#000000;stop-opacity:1"
       d="m 29.645785,29.76191 c -1.124958,-0.0047 -2.259583,6.68e-4 -3.404392,0.01715 a 5.1034514,5.1034514 0 0 0 -5.029455,5.101975 V 178.42786 a 5.1034514,5.1034514 0 0 0 5.310956,5.09868 c 0,0 64.681599,-2.04148 96.708746,38.63299 a 5.1034514,5.1034514 0 0 0 4.68861,1.89866 5.1034548,5.1034548 0 0 0 4.69324,-1.89866 c 32.02714,-40.67448 96.70874,-38.633 96.70874,-38.633 a 5.1034548,5.1034548 0 0 0 5.31096,-5.09868 V 34.881024 a 5.1034548,5.1034548 0 0 0 -5.02946,-5.101975 C 192.96984,29.253204 166.51596,39.735855 149.30582,50.453284 139.04462,56.84333 131.97726,63.414095 127.92289,67.693459 123.86857,63.414102 116.80075,56.843497 106.5393,50.453284 89.866978,40.070776 64.519382,29.908832 29.645785,29.76191 Z m 1.772077,10.241526 c 31.959709,0.46987 54.726814,9.772068 69.726758,19.113116 12.82552,7.986957 19.51645,15.484016 21.66641,18.118302 L 122.1999,205.98931 C 91.18294,176.59844 46.203042,173.52887 31.417862,173.33774 Z m 193.009398,0 V 173.33774 c -14.7851,0.19112 -59.76509,3.26049 -90.78204,32.65091 L 133.03409,77.234854 c 2.14996,-2.634286 8.84089,-10.131345 21.66642,-18.118302 14.99993,-9.341048 37.76704,-18.643246 69.72675,-19.113116 z M 8.0545276,41.623879 a 3.8272142,3.8272142 0 0 0 -3.8236804,3.830929 c 0,0 0.09393,115.498812 -0.2406276,132.895902 -0.192947,10.03337 4.8308411,16.1936 9.8057574,18.93183 4.974916,2.73823 9.929697,2.68184 9.929697,2.68184 h 0.04022 l 0.04021,-6.6e-4 c 24.299927,-0.53648 60.819159,8.31942 76.964046,25.1018 a 3.8272142,3.8272142 0 0 0 5.41117,0.10483 3.8272142,3.8272142 0 0 0 0.10482,-5.41118 C 87.252347,199.97383 49.828793,191.73285 23.637334,192.3111 l 0.08043,-0.002 c 0,0 -3.168539,-0.0475 -6.231276,-1.73318 -3.06274,-1.68534 -5.990995,-4.38161 -5.842978,-12.07846 0.347371,-18.06331 0.241286,-133.049507 0.241286,-133.049507 A 3.8272142,3.8272142 0 0 0 8.0545276,41.623866 Z m 239.8909924,0 a 3.8272142,3.8272142 0 0 0 -3.83027,3.824343 c 0,0 -0.10542,114.986198 0.24195,133.049508 0.14801,7.69684 -2.7809,10.39312 -5.84364,12.07887 -3.06274,1.68575 -6.23061,1.73318 -6.23061,1.73318 l 0.0804,0.002 c -26.19147,-0.57824 -63.61568,7.66273 -82.64948,27.44808 a 3.8272142,3.8272142 0 0 0 0.10482,5.41117 3.8272142,3.8272142 0 0 0 5.41117,-0.10482 c 16.14489,-16.78239 52.66413,-25.63829 76.96406,-25.1018 l 0.0402,6.6e-4 h 0.0402 c 0,0 4.95478,0.0564 9.9297,-2.68185 4.97491,-2.73822 9.9987,-8.89845 9.80576,-18.93183 -0.33457,-17.39708 -0.23997,-132.895895 -0.23997,-132.895895 a 3.8272142,3.8272142 0 0 0 -3.82434,-3.830929 z M 45.388792,70.934352 c -0.540334,-0.002 -1.080689,0.0027 -1.62045,0.01381 a 3.8272142,3.8272142 0 0 0 -3.745883,3.906747 3.8272142,3.8272142 0 0 0 3.90674,3.745882 c 30.238882,-0.636603 65.830561,25.159149 65.830561,25.159149 a 3.8272142,3.8272142 0 0 0 5.35446,-0.78978 3.8272142,3.8272142 0 0 0 -0.78978,-5.355128 c 0,0 -34.894742,-26.544885 -68.935648,-26.680715 z m 166.575908,0 c -34.04088,0.13583 -68.93498,26.68071 -68.93498,26.68071 a 3.8272085,3.8272085 0 0 0 -0.79045,5.355128 3.8272085,3.8272085 0 0 0 5.35447,0.78978 c 0,0 35.59168,-25.795747 65.83055,-25.15914 a 3.8272085,3.8272085 0 0 0 3.90675,-3.745882 3.8272085,3.8272085 0 0 0 -3.74589,-3.906747 c -0.53975,-0.01135 -1.08011,-0.01602 -1.62045,-0.01381 z M 44.130935,101.97537 a 3.8272142,3.8272142 0 0 0 -3.768301,3.79006 3.8272142,3.8272142 0 0 0 3.790058,3.86389 c 33.643055,0.32349 65.517408,25.08993 65.517408,25.08993 a 3.8272142,3.8272142 0 0 0 5.37556,-0.63223 3.8272142,3.8272142 0 0 0 -0.63222,-5.37556 c 0,0 -32.909165,-26.37765 -70.186914,-26.73609 a 3.8272142,3.8272142 0 0 0 -0.09559,0 z m 168.996035,0 c -37.27774,0.35844 -70.18691,26.73609 -70.18691,26.73609 a 3.8272085,3.8272085 0 0 0 -0.63223,5.37556 3.8272085,3.8272085 0 0 0 5.37557,0.63223 c 0,0 31.87435,-24.76644 65.51741,-25.08993 a 3.8272085,3.8272085 0 0 0 3.79006,-3.86389 3.8272085,3.8272085 0 0 0 -3.8639,-3.79006 z M 64.600137,137.43538 a 3.8272142,3.8272142 0 0 0 -3.765004,3.49273 3.8272142,3.8272142 0 0 0 3.478228,4.14671 c 8.629878,0.75701 19.928937,5.71099 28.794942,10.58104 8.865997,4.87006 15.337567,9.51437 15.337567,9.51437 a 3.8272142,3.8272142 0 0 0 5.34127,-0.87681 3.8272142,3.8272142 0 0 0 -0.8768,-5.34128 c 0,0 -6.8264,-4.90234 -16.116805,-10.00552 C 87.503122,143.84345 75.78701,138.3977 64.981844,137.44988 a 3.8272142,3.8272142 0 0 0 -0.381707,-0.0145 z m 128.048403,0 a 3.8272085,3.8272085 0 0 0 -0.27689,0.0145 c -10.80516,0.94782 -22.52128,6.39356 -31.81168,11.49675 -9.29042,5.10317 -16.11615,10.00551 -16.11615,10.00551 a 3.8272085,3.8272085 0 0 0 -0.87681,5.34128 3.8272085,3.8272085 0 0 0 5.34062,0.87681 c 0,0 6.47157,-4.6443 15.33757,-9.51437 8.866,-4.87006 20.16506,-9.82404 28.79494,-10.58104 a 3.8272085,3.8272085 0 0 0 3.47822,-4.14671 3.8272085,3.8272085 0 0 0 -3.77423,-3.49273 3.8272085,3.8272085 0 0 0 -0.0956,0 z" />
  </g>
</svg>
