<?xml version="1.0" encoding="UTF-8" standalone="no"?>
<svg
   xmlns:dc="http://purl.org/dc/elements/1.1/"
   xmlns:cc="http://creativecommons.org/ns#"
   xmlns:rdf="http://www.w3.org/1999/02/22-rdf-syntax-ns#"
   xmlns:svg="http://www.w3.org/2000/svg"
   xmlns="http://www.w3.org/2000/svg"
   xmlns:sodipodi="http://sodipodi.sourceforge.net/DTD/sodipodi-0.dtd"
   xmlns:inkscape="http://www.inkscape.org/namespaces/inkscape"
   width="850"
   height="256"
   viewBox="0 0 850 256"
   version="1.1"
   id="svg8"
   inkscape:version="1.0.2-2 (e86c870879, 2021-01-15)"
   sodipodi:docname="logo_desenho.svg">
  <defs
     id="defs2" />
  <sodipodi:namedview
     id="base"
     pagecolor="#ffffff"
     bordercolor="#666666"
     borderopacity="1.0"
     inkscape:pageopacity="0.0"
     inkscape:pageshadow="2"
     inkscape:zoom="0.98994949"
     inkscape:cx="404.17876"
     inkscape:cy="199.6701"
     inkscape:document-units="px"
     inkscape:current-layer="layer1"
     inkscape:document-rotation="0"
     showgrid="false"
     units="px"
     inkscape:window-width="1920"
     inkscape:window-height="1027"
     inkscape:window-x="1358"
     inkscape:window-y="-8"
     inkscape:window-maximized="1" />
  <metadata
     id="metadata5">
    <rdf:RDF>
      <cc:Work
         rdf:about="">
        <dc:format>image/svg+xml</dc:format>
        <dc:type
           rdf:resource="http://purl.org/dc/dcmitype/StillImage" />
        <dc:title />
      </cc:Work>
    </rdf:RDF>
  </metadata>
  <g
     inkscape:label="Layer 1"
     inkscape:groupmode="layer"
     id="layer1">
    <path
       id="path871"
       style="fill:#ffffff;fill-opacity:1;stroke:none;stroke-width:1.5664px;stroke-linecap:butt;stroke-linejoin:miter;stroke-opacity:1"
       d="m 111.41136,12.356898 c -2.54829,-0.04386 -5.66573,0.636962 -9.34335,2.707559 0,0 -11.965907,-1.779841 -26.206659,4.84606 -14.240752,6.625902 -22.251417,19.579525 -20.372422,21.458504 1.878979,1.878995 10.6811,-12.954641 17.603679,-13.7458 0,0 -5.833615,4.25208 -3.460154,6.427752 2.373446,2.175671 14.63569,11.276396 13.152274,28.978461 L 70.91739,63.818761 c 0,0 1.978556,2.671375 -1.284936,4.74816 -3.263507,2.076784 -12.164328,12.856584 -9.09861,13.054374 3.065717,0.197789 11.074784,-4.45294 22.052029,-2.475043 10.977245,1.977882 16.218916,8.210365 16.713399,0.397726 0.494466,-7.812625 3.857878,-54.392745 3.857878,-54.392745 0,0 -3.06619,52.511933 -1.78056,55.182071 1.28562,2.670138 1.48407,4.550292 10.28565,4.451389 8.80158,-0.09884 6.62619,-4.550433 16.71339,-5.044915 10.0872,-0.494467 21.16202,-0.0968 29.9636,11.374779 8.80159,11.471733 10.97724,20.272243 15.52636,23.239073 4.54913,2.96683 13.35106,5.14327 13.05437,2.9676 -0.29667,-2.17567 -10.18632,-29.271823 -20.37242,-35.699935 -10.1861,-6.428128 -11.76952,-11.670708 -35.50412,-12.362964 0,0 19.48296,-4.64661 34.31708,9.297465 0,0 0.002,-14.241347 0.10104,-17.900434 0.0988,-3.659087 0.78995,-7.319568 3.1634,-5.341686 2.37346,1.977882 6.32888,-0.494952 10.38354,37.183721 0,0 3.55981,6.03228 2.47197,-8.80184 -1.08783,-14.834121 -8.70226,-53.699047 -29.56891,-60.621641 -20.86668,-6.922579 -32.04091,-7.021278 -32.04091,-7.021278 0,0 -2.85296,-3.599328 -8.45919,-3.69574 z M 62.883449,71.932244 c 0,0 -9.456941,4.13601 -19.39035,19.604513 0.325576,-3.1358 0.56627,-8.508535 -1.847871,-7.443474 -3.275506,1.445085 -2.894823,14.976364 -2.872752,15.685444 -0.924601,1.805523 -1.840587,3.686343 -2.741206,5.717983 -12.027738,27.13235 -26.8552643,80.27861 -24.89726,90.62806 1.958004,10.34946 15.665787,14.8249 21.819512,15.66403 0,0 -24.6153384,-5.03398 -18.181901,-28.25032 6.433438,-23.21633 10.629597,-43.07609 18.181901,-62.65613 7.552304,-19.58004 18.740466,-34.966541 22.936186,-38.043412 4.195721,-3.076854 6.993741,-10.906694 6.993741,-10.906694 z" />
    <path
       id="path929"
       style="color:#000000;font-style:normal;font-variant:normal;font-weight:normal;font-stretch:normal;font-size:medium;line-height:1.25;font-family:Neucha;-inkscape-font-specification:Neucha;font-variant-ligatures:normal;font-variant-position:normal;font-variant-caps:normal;font-variant-numeric:normal;font-variant-alternates:normal;font-variant-east-asian:normal;font-feature-settings:normal;font-variation-settings:normal;text-indent:0;text-align:start;text-decoration:none;text-decoration-line:none;text-decoration-style:solid;text-decoration-color:#000000;letter-spacing:normal;word-spacing:normal;text-transform:none;writing-mode:lr-tb;direction:ltr;text-orientation:mixed;dominant-baseline:auto;baseline-shift:baseline;text-anchor:start;white-space:normal;shape-padding:0;shape-margin:0;inline-size:0;clip-rule:nonzero;display:inline;overflow:visible;visibility:visible;isolation:auto;mix-blend-mode:normal;color-interpolation:sRGB;color-interpolation-filters:linearRGB;solid-color:#000000;solid-opacity:1;vector-effect:none;fill:#ffffff;fill-opacity:1;fill-rule:nonzero;stroke:none;stroke-width:6.106;stroke-linecap:butt;stroke-linejoin:miter;stroke-miterlimit:4;stroke-dasharray:none;stroke-dashoffset:0;stroke-opacity:1;color-rendering:auto;image-rendering:auto;shape-rendering:auto;text-rendering:auto;enable-background:accumulate;stop-color:#000000"
       d="M 526.44727 90.849609 L 526.61328 94.691406 C 526.70228 96.738796 526.75 100.07197 526.75 104.61328 C 526.75 113.09797 526.4248 121.49922 525.89062 129.84766 C 522.20653 128.42656 518.32444 127.67578 514.30078 127.67578 C 508.57817 127.67578 503.41698 129.14795 499.14453 132.13867 L 499.12891 132.14844 L 499.11523 132.16016 C 495.00363 135.11207 491.91431 139.18418 489.95703 144.12891 L 489.94727 144.14648 L 489.94141 144.16211 C 488.20319 148.7008 486.93808 153.16861 486.15625 157.56641 L 486.15039 157.59961 L 486.14453 157.63281 C 485.46588 161.99555 485.13086 166.61986 485.13086 171.50781 C 485.13086 181.239 487.6258 190.1189 492.59766 197.875 L 492.60352 197.88672 L 492.61133 197.89844 C 497.81474 205.8566 505.65339 210.17383 514.99805 210.17383 C 519.39769 210.17383 523.66528 209.20737 527.72656 207.38477 L 527.72656 209.06445 L 541.45312 211.81055 L 541.51172 208.14844 L 543.35938 95.898438 L 541.64062 95.039062 C 538.64365 93.540572 534.86971 92.429554 530.22461 91.558594 L 526.44727 90.849609 z M 611.50195 94.158203 C 603.96912 94.158203 597.23523 97.421378 592.02344 103.44531 C 586.87275 109.30705 584.14844 116.12952 584.14844 123.4668 C 584.14844 129.49843 586.08125 135.16042 589.78711 140.10156 L 589.79688 140.11523 L 589.80469 140.12695 C 593.36986 144.78148 597.6925 148.75231 602.7207 152.00586 L 602.73828 152.01758 L 602.75586 152.0293 C 607.51626 155.01622 612.27833 157.95583 617.03906 160.84961 C 621.54932 163.59113 625.34864 166.74375 628.48047 170.31055 L 628.49219 170.32422 L 628.50586 170.33789 C 631.44293 173.6013 632.74805 176.91212 632.74805 180.72656 C 632.74805 185.04565 631.42642 187.41438 628.27344 189.25195 C 624.90805 191.17309 620.72624 192.19727 615.55078 192.19727 C 608.29946 192.19727 600.8596 190.18057 593.12109 186 L 589.66211 184.13086 L 586.28125 197.6582 L 587.79883 198.88281 C 591.31484 201.71831 596.51654 203.78573 603.61914 205.60938 L 603.64258 205.61523 L 603.66602 205.62305 C 610.84639 207.34633 617.64795 208.2207 624.07031 208.2207 C 631.86042 208.2207 638.61202 205.73194 643.66406 200.78516 L 643.67578 200.77344 L 643.68555 200.76172 C 648.71668 195.7306 651.2832 189.05982 651.2832 181.42578 C 651.2832 176.13327 650.32786 171.26347 648.36523 166.91797 C 646.44878 162.58347 643.87443 158.90165 640.64648 155.98438 C 637.72152 153.2579 634.46978 150.73647 630.89844 148.41992 C 627.39436 146.14701 623.84195 144.01582 620.24023 142.02539 L 620.27148 142.04102 C 616.91368 140.13524 613.84048 138.19222 611.05273 136.21484 C 608.55515 134.37961 606.56044 132.25456 605.00391 129.79688 C 603.53849 127.48305 602.82422 124.99454 602.82422 122.07227 C 602.82422 118.21629 604.00242 115.5029 606.57617 113.15625 C 609.21314 110.75196 612.15894 109.62305 615.9707 109.62305 C 622.72397 109.62305 631.38482 111.34424 641.79688 114.90625 L 644.79688 115.93164 L 648.13477 104.80469 L 645.77734 103.67773 C 641.32719 101.54939 635.90834 99.463049 629.49219 97.386719 C 623.01901 95.261199 617.02969 94.160156 611.50195 94.160156 L 611.50195 94.158203 z M 115.2793 98.345703 L 58.199219 101.63281 L 60.880859 113.69531 L 63.207031 113.80859 C 68.258744 114.05303 75.923498 114.55114 84.689453 115.1582 C 84.38557 123.4462 84.183594 132.30892 84.183594 142.32031 L 84.183594 159.51758 L 84.183594 159.53516 C 84.276624 167.16345 84.322267 172.88336 84.322266 176.67578 C 84.322266 186.89866 84.228295 194.51583 84.044922 199.4668 L 84.033203 199.81055 L 84.097656 200.15039 C 84.592082 202.74612 86.005387 205.08112 88.052734 206.7832 C 90.028682 208.51345 92.408785 209.61523 94.916016 209.61523 C 96.690377 209.61523 98.521064 208.99417 99.869141 207.80469 C 101.21721 206.61522 102.0591 205.01914 102.58984 203.25 L 102.73633 202.75781 L 102.71484 202.24609 C 101.63702 176.28877 99.967028 147.4218 97.765625 115.94531 L 118.03125 117.03125 L 118.26367 117.00781 C 120.57688 116.77648 122.72995 116.03177 124.30859 114.45312 C 125.70735 113.05437 126.59961 111.07516 126.59961 109.08203 C 126.59961 106.35498 125.33612 103.76188 123.33008 101.75586 C 121.2394 99.665165 118.41803 98.471173 115.42773 98.351562 L 115.2793 98.345703 z M 348.15625 100.10938 L 347.99414 103.63672 C 346.98393 125.76955 346.48309 150.70457 346.4668 178.31445 L 305.68359 100.86328 L 293.30273 100.86328 L 291.42578 200.81641 L 291.48438 201.12891 C 291.97179 203.68781 293.27381 206.01658 295.18945 207.8125 L 295.22266 207.84375 L 295.25781 207.87305 C 297.24139 209.62327 299.64215 210.73242 302.16602 210.73242 C 303.98302 210.73242 305.85016 210.10191 307.22656 208.88281 C 308.60296 207.66371 309.45567 206.02224 309.98438 204.20117 L 310.11914 203.73633 L 310.10352 203.25195 C 309.82604 194.64981 309.63995 181.95772 309.54688 165.22461 C 309.54688 154.60483 309.49638 149.69798 309.45898 143.25586 C 312.88978 149.75747 315.8366 155.19818 321.49805 166.58398 L 321.5 166.58984 L 321.50391 166.5957 C 330.00403 183.50253 337.10942 196.37023 342.89844 205.29102 L 343.32227 205.94531 L 344.00586 206.31445 C 347.7948 208.36253 351.60894 209.47461 355.37305 209.47461 C 357.91263 209.47461 360.39462 208.96759 362.7207 207.9707 L 364.59961 207.16602 L 364.57031 205.12305 C 363.91835 158.74126 363.08315 125.44689 362.05469 105.1582 L 361.93359 102.76758 L 348.15625 100.10938 z M 127.10156 100.12109 L 126.92188 103.76562 C 126.5473 111.35074 126.31224 119.39515 126.21875 127.90234 L 126.21875 127.91992 L 126.21875 127.93555 C 126.21875 136.32618 126.26626 146.38819 126.35938 158.125 L 126.35938 158.12695 C 126.45248 169.76183 126.49805 177.76884 126.49805 182.12305 C 126.49805 191.97283 126.40525 199.17208 126.22266 203.64453 L 126.12891 205.89648 L 128.25586 206.64844 C 130.28151 207.36338 132.5649 207.66016 135.13672 207.66016 C 136.95891 207.66016 139.01545 207.45022 141.36523 207.05859 L 144.00977 206.61914 L 143.91406 203.93945 C 143.73014 198.78978 143.59106 190.27846 143.49805 178.4668 C 143.40885 167.14421 143.22344 158.91702 142.96094 152.98633 C 144.04203 151.43561 145.61822 149.95771 148.05078 148.63086 L 148.08203 148.61523 L 148.11328 148.59766 C 150.7928 147.05491 153.34846 146.35156 155.94531 146.35156 C 158.97621 146.35156 160.9323 147.13851 162.49023 148.67969 C 164.02877 150.20168 165.25093 152.73016 165.88867 156.51758 C 165.89367 162.47235 166.02543 169.77501 166.30078 178.58594 L 166.30078 178.58789 L 166.30273 178.58789 C 166.58162 187.41955 166.71875 193.65232 166.71875 197.20508 C 166.71875 197.82271 166.67545 198.96285 166.58398 200.51758 L 166.57812 200.60742 L 166.57812 206.49805 L 168.96875 207.0293 C 170.90172 207.45885 172.9835 207.66016 175.2168 207.66016 C 177.38415 207.66016 179.35427 207.34927 181.10547 206.54102 L 182.87891 205.72266 L 182.87891 157.82227 C 182.87891 149.7437 180.22579 142.81069 174.9668 137.75586 C 169.90224 132.79996 163.54614 130.18945 156.50195 130.18945 C 150.88473 130.18945 145.72053 131.83857 141.19727 134.88086 C 141.07895 131.68403 140.96099 129.20109 140.8418 123.85156 L 140.8418 123.81836 C 140.74827 115.42859 140.56436 109.31832 140.27539 105.36914 L 140.11133 103.12305 L 127.10156 100.12109 z M 653.18164 100.12109 L 653.00195 103.76562 C 652.62737 111.35075 652.39426 119.39515 652.30078 127.90234 L 652.30078 127.91992 L 652.30078 127.93555 C 652.30078 136.32618 652.34628 146.38819 652.43945 158.125 L 652.43945 158.12695 C 652.53255 169.76183 652.58008 177.76884 652.58008 182.12305 C 652.58008 191.97283 652.48527 199.17208 652.30273 203.64453 L 652.21094 205.89648 L 654.33789 206.64844 C 656.36354 207.36338 658.64693 207.66016 661.21875 207.66016 C 663.04094 207.66016 665.09749 207.45022 667.44727 207.05859 L 670.0918 206.61914 L 669.99609 203.93945 C 669.81217 198.78978 669.67114 190.27846 669.57812 178.4668 C 669.48892 167.14421 669.30547 158.91702 669.04297 152.98633 C 670.12405 151.43561 671.70026 149.95771 674.13281 148.63086 L 674.16406 148.61523 L 674.19336 148.59766 C 676.87288 147.05491 679.43049 146.35156 682.02734 146.35156 C 685.05825 146.35156 687.01628 147.13851 688.57422 148.67969 C 690.11399 150.20291 691.3334 152.73283 691.9707 156.52539 C 691.9757 162.47905 692.10757 169.77813 692.38281 178.58594 L 692.38281 178.58789 C 692.66171 187.41955 692.80078 193.65232 692.80078 197.20508 C 692.80078 197.8227 692.75749 198.96285 692.66602 200.51758 L 692.6582 200.60742 L 692.6582 206.49805 L 695.04883 207.0293 C 696.9818 207.45885 699.06553 207.66016 701.29883 207.66016 C 703.46618 207.66016 705.43435 207.34926 707.18555 206.54102 L 708.95898 205.72266 L 708.95898 157.82227 C 708.95898 149.7437 706.30782 142.81069 701.04883 137.75586 C 695.98427 132.79996 689.62817 130.18945 682.58398 130.18945 C 676.96728 130.18945 671.80227 131.83911 667.2793 134.88086 C 667.16102 131.68528 667.043 129.20767 666.92383 123.85156 L 666.92188 123.81836 C 666.82827 115.4336 666.64628 109.31679 666.35742 105.36914 L 666.19141 103.12305 L 653.18164 100.12109 z M 740.26367 127.25781 C 735.25992 127.25781 730.63887 129.40168 727.01172 133.24219 C 723.49741 136.96323 720.89673 141.59194 719.19727 146.99023 C 717.58143 152.12291 716.33824 157.03823 715.47461 161.74023 L 715.4668 161.76953 L 715.46289 161.79883 C 714.69678 166.49129 714.30469 170.79304 714.30469 174.7207 C 714.30469 184.27628 716.81701 192.64533 721.89453 199.44922 L 721.90039 199.45898 L 721.91016 199.46875 C 727.05578 206.26097 734.57233 210.34595 743.7793 211.54688 L 744.09766 211.58789 L 744.41797 211.5625 C 749.57791 211.14971 754.24932 209.44836 758.16602 206.48438 L 758.17188 206.48047 L 758.17578 206.47461 C 762.08686 203.48984 765.12822 199.71712 767.19141 195.28125 C 769.14548 191.08 770.57296 186.80424 771.46094 182.46875 C 772.43326 178.08097 772.92383 173.67686 772.92383 169.27344 C 772.92383 158.85309 770.02975 149.25329 764.31055 140.76758 C 758.47934 132.02076 750.12382 127.25781 740.26367 127.25781 z M 779.86328 127.37305 L 779.80664 130.96094 L 778.125 238.38867 L 778.18359 238.69531 C 778.67198 241.25929 779.99757 243.58294 781.95703 245.30078 C 781.95803 245.30176 781.95994 245.3017 781.96094 245.30273 C 783.94388 247.05124 786.34082 248.16016 788.86328 248.16016 C 790.68028 248.16016 792.54937 247.52965 793.92578 246.31055 C 795.30218 245.09146 796.15489 243.44998 796.68359 241.62891 L 796.82031 241.1582 L 796.80273 240.66992 C 796.56201 233.84944 796.27 222.40721 795.95898 209.30469 C 799.53288 210.67951 803.23388 211.42969 807.01953 211.42969 C 812.74213 211.42969 817.87305 209.95789 822.06641 206.94727 L 822.07227 206.94336 L 822.07812 206.93945 C 826.25082 203.91425 829.38927 199.86179 831.35547 194.99805 L 831.36133 194.98633 L 831.36523 194.97656 C 833.2029 190.33404 834.476 185.79678 835.16797 181.36523 C 835.9421 176.9056 836.32617 172.26867 836.32617 167.45898 C 836.32617 157.7175 833.77905 148.82557 828.70703 141.06836 C 823.50362 133.1102 815.66497 128.79298 806.32031 128.79297 C 802.05952 128.79297 797.8427 129.80426 793.73242 131.69531 L 793.73242 129.84961 L 779.86328 127.37305 z M 438.25781 127.97461 L 437.94336 131.42969 C 436.60392 146.07416 435.09448 167.54566 433.41992 195.48047 L 431.6875 187.86719 L 429.25195 187.86719 C 428.78347 187.86719 428.82773 187.8934 428.71094 187.9082 C 428.59415 187.9231 428.4715 187.94069 428.32227 187.96289 C 428.02382 188.00729 427.62698 188.06967 427.11914 188.15234 C 426.10346 188.31768 424.6451 188.56211 422.73242 188.88867 L 422.72656 188.89062 L 422.7207 188.89062 C 419.06448 189.53046 414.83219 190.17571 410.04883 190.82031 C 410.04383 190.82093 410.04086 190.81968 410.03516 190.82031 C 405.28064 191.36847 401.28787 191.63867 398.10938 191.63867 C 395.68939 191.63867 393.76275 191.19974 392.21094 190.42383 C 390.5237 189.58021 389.30569 188.60917 388.41602 187.54297 C 387.54605 186.29447 386.75048 184.67133 386.09375 182.63477 C 385.48882 180.37438 385.05791 178.3073 384.80273 176.45312 C 384.69493 175.25519 384.63283 173.70105 384.55664 172.25195 C 385.93793 172.01317 387.01414 171.81333 389.35547 171.45312 C 393.00395 170.89183 396.14483 170.37579 398.78516 169.9043 C 401.54413 169.41163 404.62663 168.63908 408.05664 167.5918 L 408.0625 167.58984 C 411.65374 166.52183 414.63904 165.34379 417.06836 163.9707 L 417.08594 163.96094 L 417.10352 163.95117 C 419.6958 162.43901 421.89525 160.40182 423.62305 157.93164 C 425.56982 155.28539 426.57813 152.10241 426.57812 148.74414 C 426.57812 142.8735 424.19295 137.66335 419.76562 133.98242 C 415.4479 130.30248 410.21372 128.375 404.5332 128.375 C 393.44966 128.375 384.535 131.53936 378.5957 138.10938 C 372.6564 144.67941 369.91797 154.2439 369.91797 166.3418 C 369.91797 170.42176 370.25818 174.58663 370.93359 178.83203 L 370.93945 178.87109 L 370.94727 178.91016 C 371.72401 183.08515 372.88514 187.33652 374.42383 191.66406 L 374.42773 191.67578 L 374.43164 191.6875 C 376.07106 196.19591 378.59215 200.05372 381.95312 203.09961 L 381.97266 203.11719 L 381.99219 203.13477 C 385.4815 206.18791 389.81047 207.80078 394.47656 207.80078 C 398.84726 207.80078 404.90259 206.86772 413.01172 205.07617 L 413.02539 205.07031 L 413.03711 205.06836 C 421.20083 203.19164 427.37148 201.50448 431.69141 199.93359 L 433.17969 199.39258 L 433.16406 199.63867 L 433.23633 200.01172 C 433.72373 202.57062 435.02381 204.8994 436.93945 206.69531 L 437.01172 206.76172 L 437.08594 206.82422 C 439.07685 208.46379 441.44868 209.47461 443.91602 209.47461 C 445.71345 209.47461 447.55759 208.87781 448.93945 207.69336 C 450.32131 206.50891 451.19135 204.89342 451.72656 203.10938 L 451.98438 202.25391 L 451.73828 201.39453 C 451.92117 202.03466 451.75188 201.38954 451.70898 200.77344 C 451.66618 200.15743 451.62008 199.25578 451.57422 198.09766 C 451.48282 195.78909 451.38946 192.44043 451.29688 188.0957 L 451.29688 188.0625 C 451.20427 179.34832 451.15835 171.42183 451.1582 164.28516 L 451.1582 164.27148 L 451.1582 164.24609 C 451.2393 158.00145 451.26919 154.93178 451.2793 153.11719 C 452.99957 151.82943 454.665 150.6022 455.72852 149.9375 L 455.78516 149.90234 L 455.83984 149.86328 C 457.09469 149.00057 458.7755 148.11073 460.85742 147.24219 C 462.88648 146.43393 464.68151 146.07227 466.25977 146.07227 C 469.77523 146.07227 471.64093 147.44415 473.31641 151.91211 L 474.00781 153.75195 L 484.66211 154.47852 L 485.2832 151.99805 C 485.57829 150.81768 485.65234 149.57911 485.65234 148.04688 C 485.65234 142.77863 483.2621 138.13415 478.98438 135.3125 C 474.96112 132.59972 470.02086 131.30664 464.44531 131.30664 C 460.00158 131.30664 455.4099 133.16821 450.47656 136.53125 L 450.21289 130.63086 L 438.25781 127.97461 z M 222.8418 128.375 C 211.75827 128.375 202.84361 131.53936 196.9043 138.10938 C 190.965 144.67941 188.22656 154.2439 188.22656 166.3418 C 188.22656 170.42176 188.56679 174.58663 189.24219 178.83203 L 189.24805 178.87109 L 189.25586 178.91016 C 190.0326 183.08514 191.19374 187.33653 192.73242 191.66406 L 192.73633 191.67578 L 192.73828 191.6875 C 194.3777 196.19591 196.90074 200.05372 200.26172 203.09961 L 200.28125 203.11719 L 200.30078 203.13477 C 203.79008 206.18791 208.11908 207.80078 212.78516 207.80078 C 217.15586 207.80078 223.21118 206.86772 231.32031 205.07617 L 231.33398 205.07031 L 231.3457 205.06836 C 239.50943 203.19164 245.68006 201.50448 250 199.93359 L 252.5293 199.01367 L 249.99609 187.86719 L 247.56055 187.86719 C 247.09207 187.86719 247.13632 187.8934 247.01953 187.9082 C 246.90274 187.9231 246.78008 187.94069 246.63086 187.96289 C 246.3324 188.00729 245.93557 188.06967 245.42773 188.15234 C 244.41205 188.31768 242.9537 188.56211 241.04102 188.88867 L 241.03516 188.89062 L 241.0293 188.89062 C 237.37309 189.53046 233.14079 190.17571 228.35742 190.82031 C 228.35242 190.82093 228.34945 190.81968 228.34375 190.82031 C 223.58923 191.36847 219.59452 191.63867 216.41602 191.63867 C 213.99604 191.63867 212.07134 191.19974 210.51953 190.42383 C 208.83228 189.58021 207.61428 188.60917 206.72461 187.54297 C 205.85463 186.29447 205.05907 184.67133 204.40234 182.63477 C 203.79742 180.37437 203.36651 178.3073 203.11133 176.45312 C 203.00352 175.25518 202.94142 173.70105 202.86523 172.25195 C 204.24653 172.01317 205.32274 171.81333 207.66406 171.45312 C 211.31254 170.89183 214.45342 170.37579 217.09375 169.9043 C 219.85271 169.41163 222.93522 168.63908 226.36523 167.5918 L 226.37109 167.58984 C 229.96234 166.52183 232.94763 165.34379 235.37695 163.9707 L 235.39453 163.96094 L 235.41211 163.95117 C 238.00438 162.43901 240.20383 160.40182 241.93164 157.93164 C 243.8784 155.28539 244.88672 152.10241 244.88672 148.74414 C 244.88672 142.8735 242.50154 137.66335 238.07422 133.98242 C 233.7565 130.30248 228.52233 128.375 222.8418 128.375 z M 741.15625 140.69922 L 741.1582 140.69922 C 746.21607 141.42657 749.90642 143.89368 752.87695 148.79102 C 756.0072 153.95171 757.60156 160.00437 757.60156 167.17969 C 757.60156 169.49584 757.26511 172.26697 756.55664 175.45508 L 756.54492 175.49414 L 756.53711 175.53516 C 755.92697 178.673 754.96698 181.82419 753.64453 184.99805 L 753.63477 185.01758 L 753.62695 185.03906 C 752.46686 187.9393 750.89852 190.29078 748.90039 192.20898 C 747.02756 194.0069 745.2937 194.71094 743.19531 194.71094 C 740.31271 194.71094 737.66626 193.27573 734.77539 189.40625 C 731.94753 185.40319 730.60547 181.26072 730.60547 176.67578 C 730.60547 172.83799 730.92075 168.34689 731.56055 163.22852 L 731.56055 163.22461 L 731.56055 163.22266 C 732.17661 158.20609 733.54662 153.01625 735.69531 147.64453 C 736.72187 145.07813 737.83142 143.25013 738.83984 142.15625 C 739.72913 141.19159 740.44213 140.84312 741.15625 140.69922 z M 806.73828 143.41797 L 806.74023 143.41797 C 811.34154 143.41797 814.10836 144.83716 816.25586 148.01172 C 818.40335 151.18627 819.74805 156.53781 819.74805 164.10742 C 819.74805 167.70436 819.52246 171.10165 819.07812 174.30078 L 819.07031 174.3418 L 819.06641 174.38281 C 818.71661 177.53102 818.00825 181.00042 816.92969 184.77539 L 816.92383 184.79883 L 816.91602 184.82227 C 816.01962 188.16336 814.52135 190.64703 812.38477 192.55469 L 812.36523 192.57227 L 812.34375 192.5918 C 810.36764 194.42154 808.1799 195.26953 805.20117 195.26953 C 802.89934 195.26953 800.91462 194.7549 799.05273 193.7207 C 797.36573 192.69994 796.23334 191.46936 795.39844 190.00586 L 794.99414 146.5957 C 795.21715 146.19949 795.87807 145.50373 798.03906 144.80664 L 798.06641 144.79883 L 798.09375 144.78906 C 800.73098 143.88251 803.59598 143.41797 806.73828 143.41797 z M 516.25586 143.69727 C 518.4295 143.69727 520.34553 144.2288 522.22656 145.35742 L 522.28906 145.39453 L 522.35156 145.42773 C 524.10025 146.36934 525.22855 147.56776 526.06055 149.08398 L 526.46289 192.36719 C 526.23979 192.75296 525.50583 193.52355 523.25195 194.30469 C 520.71876 195.1185 517.83929 195.54883 514.58008 195.54883 C 510.03193 195.54883 507.30489 194.14179 505.17578 190.9668 C 503.04667 187.79181 501.71289 182.43197 501.71289 174.85938 C 501.71289 171.24938 501.89568 167.83782 502.25195 164.61914 C 502.69632 161.43493 503.40943 157.99813 504.39648 154.31445 C 505.38831 150.85388 506.91758 148.2965 508.95703 146.40039 C 511.03269 144.55516 513.28747 143.69727 516.25586 143.69727 z M 223.67969 143.83789 C 225.27817 143.83789 225.82523 144.1658 226.32227 144.78711 C 226.7274 145.29351 227.21028 146.4253 227.67578 147.83203 C 221.40036 150.76595 213.64299 153.61898 204.66992 156.38867 C 205.82661 153.64638 207.57595 151.19096 210.1543 148.97852 C 214.33721 145.46924 218.70637 143.83789 223.67969 143.83789 z M 405.37109 143.83789 C 406.96956 143.83789 407.51661 144.16579 408.01367 144.78711 C 408.4188 145.29352 408.90169 146.4253 409.36719 147.83203 C 403.09177 150.76595 395.33439 153.61898 386.36133 156.38867 C 387.51802 153.64638 389.26734 151.19096 391.8457 148.97852 C 396.02862 145.46924 400.39776 143.83789 405.37109 143.83789 z " />
  </g>
</svg>
